# xmcd
#
# Track frame offsets:
#	150
#	17162
#	42287
#
# Disc length: 1011 seconds
#
# Revision: 0
# Processed by: cddbd v1.5.2PL0 Copyright (c) Steve Scherf et al.
# Submitted via: audiograbber 1.83.01
#
DISCID=1c03f103
DTITLE=Moovon - Crazy [CDM)
DYEAR=2001
DGENRE=Trance
TTITLE0=Crazy (Radio Edit)
TTITLE1=Crazy (Extended Mix)
TTITLE2=Crazy (Goofy's VM 7200 Remix)
EXTD=TR.
EXTT0=
EXTT1=
EXTT2=
PLAYORDER=
